<svg xmlns="http://www.w3.org/2000/svg" xmlns:xlink="http://www.w3.org/1999/xlink" viewBox="0 0 192 192"><defs><path fill="#0F9D58" d="M8 184h83.8l38.9-38.9V116H61.4L8 24.5z" id="reuse-2"/><path fill="#DB4437" d="M22 8v108h39.4L96 56h88V8z" id="reuse-1"/><path fill="#FFCD40" d="M96 56l34.6 60-38.8 68H184V56z" id="reuse-0"/></defs><defs><circle id="a" cx="96" cy="96" r="88"/></defs><clipPath id="b"><use xlink:href="#a" overflow="visible"/></clipPath><g clip-path="url(#b)"><use xlink:href="#reuse-1"/><linearGradient id="c" gradientUnits="userSpaceOnUse" x1="29.3" y1="75" x2="81.8" y2="44.4"><stop offset="0" stop-color="#a52714" stop-opacity=".6"/><stop offset=".7" stop-color="#a52714" stop-opacity="0"/></linearGradient><path fill="url(#c)" d="M22 8v108h39.4L96 56h88V8z"/></g><path clip-path="url(#b)" fill="#3E2723" fill-opacity=".1" d="M62.3 115.7L22.5 47.3l-.6 1 39.5 67.8z"/><g clip-path="url(#b)"><use xlink:href="#reuse-2"/><linearGradient id="d" gradientUnits="userSpaceOnUse" x1="110.9" y1="164.5" x2="52.5" y2="130.3"><stop offset="0" stop-color="#055524" stop-opacity=".4"/><stop offset=".3" stop-color="#055524" stop-opacity="0"/></linearGradient><path fill="url(#d)" d="M8 184h83.8l38.9-38.9V116H61.4L8 24.5z"/></g><path clip-path="url(#b)" fill="#263238" fill-opacity=".1" d="M129.8 117.3l-.8-.4L90.6 184h1.2l38-66.6z"/><g clip-path="url(#b)"><defs><path id="e" d="M8 184h83.8l38.9-38.9V116H61.4L8 24.5z"/></defs><clipPath id="f"><use xlink:href="#e" overflow="visible"/></clipPath><g clip-path="url(#f)"><use xlink:href="#reuse-0"/><linearGradient id="g" gradientUnits="userSpaceOnUse" x1="121.9" y1="49.8" x2="136.5" y2="114.1"><stop offset="0" stop-color="#ea6100" stop-opacity=".3"/><stop offset=".7" stop-color="#ea6100" stop-opacity="0"/></linearGradient><path fill="url(#g)" d="M96 56l34.6 60-38.8 68H184V56z"/></g></g><g clip-path="url(#b)"><use xlink:href="#reuse-0"/><linearGradient id="h" gradientUnits="userSpaceOnUse" x1="121.9" y1="49.8" x2="136.5" y2="114.1"><stop offset="0" stop-color="#ea6100" stop-opacity=".3"/><stop offset=".7" stop-color="#ea6100" stop-opacity="0"/></linearGradient><path fill="url(#h)" d="M96 56l34.6 60-38.8 68H184V56z"/></g><g clip-path="url(#b)"><defs><path id="i" d="M96 56l34.6 60-38.8 68H184V56z"/></defs><clipPath id="j"><use xlink:href="#i" overflow="visible"/></clipPath><g clip-path="url(#j)"><use xlink:href="#reuse-1"/><linearGradient id="k" gradientUnits="userSpaceOnUse" x1="29.3" y1="75" x2="81.8" y2="44.4"><stop offset="0" stop-color="#a52714" stop-opacity=".6"/><stop offset=".7" stop-color="#a52714" stop-opacity="0"/></linearGradient><path fill="url(#k)" d="M22 8v108h39.4L96 56h88V8z"/></g></g><radialGradient id="l" cx="668.2" cy="55.9" r="84.1" gradientTransform="translate(-576)" gradientUnits="userSpaceOnUse"><stop offset="0" stop-color="#3e2723" stop-opacity=".2"/><stop offset="1" stop-color="#3e2723" stop-opacity="0"/></radialGradient><path clip-path="url(#b)" fill="url(#l)" d="M96 56v21l78.4-21z"/><g clip-path="url(#b)"><defs><path id="m" d="M22 8v40.3L61.4 116 96 56h88V8z"/></defs><clipPath id="n"><use xlink:href="#m" overflow="visible"/></clipPath><g clip-path="url(#n)"><use xlink:href="#reuse-2"/><linearGradient id="o" gradientUnits="userSpaceOnUse" x1="110.9" y1="164.5" x2="52.5" y2="130.3"><stop offset="0" stop-color="#055524" stop-opacity=".4"/><stop offset=".3" stop-color="#055524" stop-opacity="0"/></linearGradient><path fill="url(#o)" d="M8 184h83.8l38.9-38.9V116H61.4L8 24.5z"/></g></g><radialGradient id="p" cx="597.9" cy="48.5" r="78" gradientTransform="translate(-576)" gradientUnits="userSpaceOnUse"><stop offset="0" stop-color="#3e2723" stop-opacity=".2"/><stop offset="1" stop-color="#3e2723" stop-opacity="0"/></radialGradient><path clip-path="url(#b)" fill="url(#p)" d="M22 48.5l57.2 57.2L61.4 116z"/><radialGradient id="q" cx="671.8" cy="96.1" r="87.9" gradientTransform="translate(-576)" gradientUnits="userSpaceOnUse"><stop offset="0" stop-color="#263238" stop-opacity=".2"/><stop offset="1" stop-color="#263238" stop-opacity="0"/></radialGradient><path clip-path="url(#b)" fill="url(#q)" d="M91.8 183.9l21-78.2 17.9 10.3z"/><g clip-path="url(#b)"><circle fill="#F1F1F1" cx="96" cy="96" r="40"/><circle fill="#4285F4" cx="96" cy="96" r="32"/></g><g clip-path="url(#b)"><path fill="#3E2723" fill-opacity=".2" d="M96 55c-22 0-40 18-40 40v1c0-22 18-40 40-40h88v-1H96z"/><path fill="#FFF" fill-opacity=".1" d="M130.6 116a40 40 0 01-69.2 0L8 24.5v1L61.4 117a40 40 0 0069.2 0v-1z"/><path opacity=".1" fill="#3E2723" d="M97 56h-.5a40 40 0 010 80h.5a40 40 0 000-80z"/><path fill="#FFF" fill-opacity=".2" d="M131 117.3a39.7 39.7 0 003.5-32 40 40 0 01-3.9 30.7l-38.8 68h1.1l38.1-66.6z"/></g><g clip-path="url(#b)"><path fill="#FFF" fill-opacity=".2" d="M96 9a88 88 0 0188 87.5V96A88 88 0 008 96v.5A88 88 0 0196 9z"/><path fill="#3E2723" fill-opacity=".1" d="M96 183a88 88 0 0088-87.5v.5A88 88 0 018 96v-.5A88 88 0 0096 183z"/></g><radialGradient id="r" cx="34.3" cy="32" r="176.7" gradientUnits="userSpaceOnUse"><stop offset="0" stop-color="#fff" stop-opacity=".1"/><stop offset="1" stop-color="#fff" stop-opacity="0"/></radialGradient><circle fill="url(#r)" cx="96" cy="96" r="88"/><path fill="none" d="M0 0h192v192H0z"/></svg>