<svg xmlns="http://www.w3.org/2000/svg" viewBox="0 0 953.4 984"><defs/><defs><radialGradient id="a" cx="-14491.1" cy="9293.7" fx="-14519.9" r="450.9" gradientTransform="matrix(.76 .03 .05 -1.12 11485.8 11148)" gradientUnits="userSpaceOnUse"><stop offset=".1" stop-color="#ffea00"/><stop offset=".2" stop-color="#ffde00"/><stop offset=".3" stop-color="#ffbf00"/><stop offset=".4" stop-color="#ff8e00"/><stop offset=".8" stop-color="#ff272d"/><stop offset=".9" stop-color="#e0255a"/><stop offset=".9" stop-color="#cc2477"/><stop offset="1" stop-color="#c42482"/></radialGradient><radialGradient id="b" cx="-7587.5" cy="8863.5" r="791.2" gradientTransform="matrix(1.23 0 0 -1.23 9958 11055.5)" gradientUnits="userSpaceOnUse"><stop offset="0" stop-color="#00ccda"/><stop offset=".2" stop-color="#0083ff"/><stop offset=".3" stop-color="#007af9"/><stop offset=".3" stop-color="#0060e8"/><stop offset=".3" stop-color="#005fe7"/><stop offset=".4" stop-color="#2639ad"/><stop offset=".5" stop-color="#401e84"/><stop offset=".6" stop-color="#4a1475"/></radialGradient><radialGradient id="d" cx="-8337.7" cy="7467.9" r="266.9" gradientTransform="matrix(1.22 .12 .12 -1.22 10240.8 10765.2)" gradientUnits="userSpaceOnUse"><stop offset="0" stop-color="#ffea00"/><stop offset=".5" stop-color="#ff272d"/><stop offset="1" stop-color="#c42482"/></radialGradient><radialGradient id="e" cx="-8361.9" cy="7723.8" r="445.7" gradientTransform="matrix(1.22 .12 .12 -1.22 10240.8 10765.2)" gradientUnits="userSpaceOnUse"><stop offset="0" stop-color="#ffe900"/><stop offset=".2" stop-color="#ffaf0e"/><stop offset=".3" stop-color="#ff7a1b"/><stop offset=".5" stop-color="#ff4e26"/><stop offset=".6" stop-color="#ff2c2e"/><stop offset=".8" stop-color="#ff1434"/><stop offset=".9" stop-color="#ff0538"/><stop offset="1" stop-color="#ff0039"/></radialGradient><radialGradient id="f" cx="-8298.9" cy="7310.7" r="409" gradientTransform="matrix(1.22 .12 .12 -1.22 10240.8 10765.2)" gradientUnits="userSpaceOnUse"><stop offset="0" stop-color="#ff272d"/><stop offset=".5" stop-color="#c42482"/><stop offset="1" stop-color="#620700"/></radialGradient><radialGradient id="g" cx="715.2" cy="590" fx="743.2" fy="576.1" r="782.2" gradientTransform="matrix(1 0 0 -1 0 984)" gradientUnits="userSpaceOnUse"><stop offset=".2" stop-color="#ffea00"/><stop offset=".2" stop-color="#ffde00"/><stop offset=".4" stop-color="#ffbf00"/><stop offset=".5" stop-color="#ff8e00"/><stop offset=".8" stop-color="#ff272d"/><stop offset=".8" stop-color="#f92433"/><stop offset=".8" stop-color="#e91c45"/><stop offset=".9" stop-color="#cf0e62"/><stop offset=".9" stop-color="#b5007f"/></radialGradient><radialGradient id="h" cx="670.3" cy="952.7" r="891.5" gradientTransform="matrix(1 0 0 -1 0 984)" gradientUnits="userSpaceOnUse"><stop offset=".3" stop-color="#ffea00"/><stop offset=".4" stop-color="#fd0"/><stop offset=".6" stop-color="#ffba00"/><stop offset=".9" stop-color="#ff9100"/><stop offset=".9" stop-color="#ff6711"/><stop offset="1" stop-color="#ff4a1d"/></radialGradient><linearGradient id="c" x1="540.6" y1="254.8" x2="349.2" y2="881" gradientTransform="matrix(1 0 0 -1 0 984)" gradientUnits="userSpaceOnUse"><stop offset="0" stop-color="#000f43" stop-opacity=".4"/><stop offset=".5" stop-color="#001962" stop-opacity=".2"/><stop offset="1" stop-color="#002079" stop-opacity="0"/></linearGradient><linearGradient id="i" x1="-9023.5" y1="7636.9" x2="-8716.4" y2="7715.2" gradientTransform="matrix(1.22 .12 .12 -1.22 10240.8 10765.2)" gradientUnits="userSpaceOnUse"><stop offset="0" stop-color="#c42482" stop-opacity=".5"/><stop offset=".5" stop-color="#ff272d" stop-opacity=".5"/><stop offset=".5" stop-color="#ff2c2c" stop-opacity=".5"/><stop offset=".7" stop-color="#ff7a1a" stop-opacity=".7"/><stop offset=".8" stop-color="#ffb20d" stop-opacity=".9"/><stop offset=".9" stop-color="#ffd605"/><stop offset="1" stop-color="#ffe302"/></linearGradient><linearGradient id="j" x1="188.9" y1="2081.2" x2="134.3" y2="2221.1" gradientTransform="matrix(.99 .1 .1 -.99 -250 2306.2)" gradientUnits="userSpaceOnUse"><stop offset="0" stop-color="#891551" stop-opacity=".6"/><stop offset="1" stop-color="#c42482" stop-opacity="0"/></linearGradient><linearGradient id="k" x1="-38.4" y1="278" x2="55.7" y2="171.2" gradientTransform="matrix(.99 .1 .1 -.99 229 745.7)" gradientUnits="userSpaceOnUse"><stop offset="0" stop-color="#891551" stop-opacity=".5"/><stop offset=".5" stop-color="#ff272d" stop-opacity=".5"/><stop offset="1" stop-color="#ff272d" stop-opacity="0"/></linearGradient><linearGradient id="l" x1="142.5" y1="93.7" x2="142.5" y2="168.5" gradientTransform="matrix(.99 .1 .1 -.99 229 745.7)" gradientUnits="userSpaceOnUse"><stop offset="0" stop-color="#c42482"/><stop offset=".1" stop-color="#c42482" stop-opacity=".8"/><stop offset=".2" stop-color="#c42482" stop-opacity=".6"/><stop offset=".3" stop-color="#c42482" stop-opacity=".4"/><stop offset=".5" stop-color="#c42482" stop-opacity=".2"/><stop offset=".6" stop-color="#c42482" stop-opacity=".1"/><stop offset=".7" stop-color="#c42482" stop-opacity="0"/><stop offset=".8" stop-color="#c42482" stop-opacity="0"/></linearGradient><linearGradient id="m" x1="620.5" y1="947.9" x2="926.2" y2="264.4" gradientTransform="matrix(1 0 0 -1 0 984)" gradientUnits="userSpaceOnUse"><stop offset="0" stop-color="#fff14f"/><stop offset=".3" stop-color="#ffee4c"/><stop offset=".5" stop-color="#ffe643"/><stop offset=".6" stop-color="#ffd834"/><stop offset=".8" stop-color="#ffc41e"/><stop offset=".9" stop-color="#ffab02"/><stop offset=".9" stop-color="#ffa900"/><stop offset=".9" stop-color="#ffa000"/><stop offset="1" stop-color="#ff9100"/></linearGradient><linearGradient id="n" x1="680.9" y1="554.8" x2="536.1" y2="166" gradientTransform="matrix(1 0 0 -1 0 984)" gradientUnits="userSpaceOnUse"><stop offset="0" stop-color="#ff8e00"/><stop offset="0" stop-color="#ff8e00" stop-opacity=".9"/><stop offset=".1" stop-color="#ff8e00" stop-opacity=".7"/><stop offset=".1" stop-color="#ff8e00" stop-opacity=".6"/><stop offset=".2" stop-color="#ff8e00" stop-opacity=".6"/><stop offset=".2" stop-color="#ff8e00" stop-opacity=".5"/><stop offset=".3" stop-color="#ff8e00" stop-opacity=".5"/><stop offset=".4" stop-color="#ff8e00" stop-opacity=".5"/><stop offset=".5" stop-color="#ff8e00" stop-opacity=".4"/><stop offset=".7" stop-color="#ff8e00" stop-opacity=".3"/><stop offset=".8" stop-color="#ff8e00" stop-opacity=".2"/><stop offset="1" stop-color="#ff8e00" stop-opacity="0"/></linearGradient></defs><g data-name="Layer 2"><g data-name="Layer 1"><g data-name="Layer 2"><g data-name="Firefox - Large"><path d="M770.3 91.6c-24 27.8-35.1 90.6-10.8 154.2s61.5 49.8 84.7 114.7C874.8 446 860.5 561 860.5 561s36.8 106.6 62.5-6.6c56.8-212.8-152.7-410.6-152.7-463z" fill="url(#a)"/><path data-name="Path" d="M478 974.6c245.3 0 444-199.7 444-446s-198.7-446-443.7-446-443.7 199.7-443.7 446a444.2 444.2 0 00443.5 446z" fill="url(#b)"/><path d="M810.7 803.6a246.8 246.8 0 01-30.2 18.2 705.3 705.3 0 0038.3-63 247.3 247.3 0 0025.2-31.6c3.5-5.4 7.3-12.1 11.5-19.9 24.9-44.9 52.4-117.5 53.1-192.2v-5.6a257.3 257.3 0 00-5.7-55.8l.6 4.3-.7-3.3 1 6c5.1 43.2 1.5 85.4-16.6 116.5l-.9 1.3a387.7 387.7 0 002-151.6s-4.1-25.4-35.3-102.5c-18-44.3-49.8-80.7-78-107.2-24.7-30.5-47.1-51-59.5-64-25.8-27.2-36.6-47.6-41-60.9-3.9-2-53.2-49.8-57.1-51.6-21.5 33.3-89.2 137.6-57 235.1 14.6 44.2 51.5 90 90 115.8 1.8 2 23 25 33.2 77.1 10.4 53.9 5 95.9-16.6 158-25.3 54.5-90 108.4-150.7 114-129.7 11.7-177.2-65.2-177.2-65.2 46.4 18.5 97.6 14.7 128.8-4.5 31.4-19.4 50.4-33.8 65.8-28.1C548.9 648.4 561 632 550 615a78.5 78.5 0 00-79.4-34.6c-31.4 5.1-60.2 30-101.4 6a86.3 86.3 0 01-7.7-5.1c-2.7-1.8 8.8 2.7 6 .7-8-4.4-22.1-13.9-25.8-17.3-.6-.5 6.2 2.2 5.6 1.6-38.5-31.7-33.7-53-32.5-66.5 1-10.8 8-24.5 19.8-30.1 5.7 3 9.2 5.5 9.2 5.5l-3.7-7.6 1.3-.4c4.7 2.3 15 8.1 20.5 11.7 7 5 9.3 9.4 9.3 9.4s1.8-1 .5-5.3a28 28 0 00-9.7-13.2h.5a81.6 81.6 0 0111.8 8.2c2-7.2 5.6-14.7 4.8-28-.5-9.5-.3-12-2-15.6-1.4-3.1.9-4.3 3.5-1.1a32.5 32.5 0 00-2.2-7.4v-.2c3.2-11.3 68.2-40.5 73-44a67.2 67.2 0 0019-20.7 53.3 53.3 0 007-26.1c.4-8.8-3.7-14.7-69.4-21.6-18-1.8-28.6-14.8-34.6-26.9-1-2.5-2.2-4.9-3.3-7.2a57.7 57.7 0 01-2.5-8.5c10.7-30.8 28.8-57 55.3-76.7 1.5-1.3-5.8.4-4.3-1 1.7-1.5 12.7-6 14.8-7 2.5-1.2-10.9-6.9-22.7-5.5-12.1 1.4-14.7 2.8-21.1 5.6 2.7-2.7 11.2-6.2 9.2-6.2-13 2-29.2 9.6-43 18.2a10.7 10.7 0 01.8-4.4c-6.4 2.7-22.3 13.8-26.9 23.1a44.3 44.3 0 00.3-5.4 84.2 84.2 0 00-13.2 13.9l-.2.2c-37.4-15-70.3-16-98-9.3-6.2-6.1-9.2-1.6-23-32-1-1.9.7 1.7 0 0-2.3-6 1.4 7.8 0 0-23.3 18.3-54 39.1-68.6 53.8-.2.6 17.1-4.9 0 0-6 1.7-5.6 5.3-6.5 37.5-.3 2.5 0 5.2-.3 7.4a208.1 208.1 0 00-22.7 34.2c-15.2 26.2-32 67-48.2 131.6a334.8 334.8 0 0125.8-50.3c-13.5 34.2-26.5 88-29.1 170.9a482 482 0 0112.5-50.7 473 473 0 0034.7 201.1 491.7 491.7 0 0051 95.4 451 451 0 00328 140.9 451.4 451.4 0 00338.4-152.4z" fill="url(#c)"/><path d="M711.1 866.7c162.9-18.9 235-186.7 142.4-190-83.6-2.7-219.5 199-142.4 190z" fill="url(#d)"/><path d="M865.2 642.4c112-65.2 82.8-206 82.8-206s-43.3 50.2-72.6 130.3c-29 79.3-77.6 115.1-10.2 75.7z" fill="url(#e)"/><path d="M509.5 950c156.2 50 290.5-73.2 207.7-114.3-75.2-37-281.9 90.8-207.7 114.4z" fill="url(#f)"/><path d="M876.9 702.2c3.8-5.3 8.9-22.5 13.4-30.2 27.6-44.5 27.8-80 27.8-80.8 16.7-83.2 15.2-117.2 5-180-8.3-50.6-44.4-123.1-75.7-158-32.2-36-9.5-24.3-40.6-50.5-27.4-30.3-53.9-60.3-68.3-72.4-104.3-87.2-102-105.7-100-108.9l-1.4 1.7L635 14s-57 57-69 152c-7.8 62 15.4 126.7 49 168a381.6 381.6 0 0059 58 226.3 226.3 0 0139.4 130 219.6 219.6 0 01-219.7 219.4 220.1 220.1 0 01-49.1-5.5c-57.2-10.9-90.3-39.8-106.8-59.4a107 107 0 01-13.4-19.4c51.2 18.4 108 14.5 142.4-4.5 34.8-19.3 55.8-33.6 72.9-28 16.8 5.7 30.2-10.6 18.2-27.5a90.7 90.7 0 00-88-34.3c-34.7 5-66.6 29.8-112.1 5.9a97.3 97.3 0 01-8.6-5c-3-1.8 9.8 2.7 6.8.6a227.2 227.2 0 01-28.6-17c-.7-.6 6.8 2.1 6.2 1.6-42.7-31.5-37.3-52.7-36-66 1-10.7 8.8-24.3 21.8-29.9 6.3 3 10.2 5.4 10.2 5.4l-4.1-7.5 1.5-.3c5.2 2.2 16.6 8 22.6 11.6 7.8 5 10.3 9.3 10.3 9.3s2-1 .6-5.3a28 28 0 00-10.7-13h.5a91.7 91.7 0 0113 8c2.3-7 6.2-14.5 5.3-27.8-.5-9.3-.2-11.7-2-15.4-1.7-3 .8-4.3 3.7-1a29.7 29.7 0 00-2.4-7.4v-.2c3.5-11.2 75.5-40.1 80.7-43.5a70.2 70.2 0 0021.2-20.7 49 49 0 007.7-25.9c.3-5.4-1.4-9.8-20.5-14-11.4-2.4-29.1-4.9-56.4-7.4a48.1 48.1 0 01-38.2-26.6c-1.2-2.6-2.4-5-3.7-7.2a53.4 53.4 0 01-2.8-8.4 158.5 158.5 0 0161.3-76c1.6-1.4-6.4.3-4.8-1 1.8-1.6 14-6 16.3-7 2.9-1.2-12-6.8-25.1-5.5-13.4 1.4-16.2 2.8-23.3 5.5 3-2.6 12.3-6 10.1-6-14.4 2-32.3 9.4-47.6 18a9.7 9.7 0 011-4.4c-7.2 2.8-24.7 13.7-29.8 23a39.8 39.8 0 00.3-5.3 88.5 88.5 0 00-14.6 13.7l-.3.2C258.1 196 221.8 195 191 201.7c-6.7-6-17.6-15.2-32.9-45.4-1-1.8-1.6 3.8-2.4 2-6-13.8-9.5-36.4-9-52 0 0-12.3 5.6-22.5 29-1.9 4.3-3.1 6.6-4.3 9-.6.6 1.2-7.8 1-7.3-1.8 3-6.4 7.2-8.4 12.6-1.4 4-3.3 6.3-4.6 11.3l-.2.5c-.1-1.5.3-6.1 0-5.2A235.4 235.4 0 0095.3 186c-5.4 18-11.8 42.6-12.8 74.6-.3 2.4 0 5.1-.3 7.3A203 203 0 0057 301.8c-16.8 26-35.3 66.4-53.3 130.5a319.4 319.4 0 0128.6-50c-15 34-29.4 87.3-32.3 169.5a437 437 0 0113.9-50.2A426 426 0 0052.3 701c20.6 45 68 136.6 183.6 208s39.4 29.3 107 51.3l15.3 5.3-4.7-2A484.9 484.9 0 00492.3 984c175.1.1 226.8-70.2 226.8-70.2l-.5.4q3.7-3.5 7.1-7.3c-27.6 26.1-90.7 27.9-114.3 26 40.3-11.8 66.7-21.8 118.2-41.5q9-3.4 18.5-7.6l2-1 3.8-1.7a349.3 349.3 0 0070.2-44c51.7-41.3 63-81.6 68.8-108.1-.8 2.5-3.3 8.4-5.1 12.3-13.3 28.5-42.9 46-75 61a689 689 0 0042.4-62.4c10.6-10.5 13.8-26.8 21.6-37.7z" fill="url(#g)"/><path d="M814 801a331 331 0 0054.3-80c36.9-77.6 94-206.6 49-341.3C881.8 273.2 833 215 771 158 670.6 65.8 642.5 24.5 642.5 0c0 0-116.1 129.4-65.8 264.4s153.5 130 221.7 270.9c80.3 165.7-65 346.6-185 397.2 7.4-1.6 267-60.4 280.6-208.9-.3 2.7-6.2 43.8-80 77.4z" fill="url(#h)"/><path d="M477.6 319.4c.4-8.8-4.2-14.7-76.7-21.5-29.8-2.7-41.3-30.3-44.7-42a207.2 207.2 0 00-12.7 91.6c1.6 22.9 17 47.5 24.4 62 0 0 1.6-2.2 2.4-3 13.8-14.4 72-36.4 77.4-39.5 6-3.8 28.9-20.6 29.9-47.6z" fill="url(#i)"/><path d="M158.3 156.5c-1-1.9-1.6 3.7-2.4 2a132 132 0 01-8.7-52s-12.3 5.6-22.5 29l-4.3 8.9c-.6.7 1.2-7.7 1-7.3-1.8 3-6.4 7.2-8.4 12.4-1.6 4.3-3.3 6.5-4.6 11.8-.4 1.4.4-6.3 0-5.4C84.7 201.7 80.2 271 82.7 268A233.8 233.8 0 01191 201.4c-6.2-4.6-19.5-17.7-32.7-45z" fill="url(#j)"/><path d="M349.8 720.1c-69.7-29.8-149-71.8-146-167.1C208 427.4 321 452.2 321 452.2c-4.3 1-15.7 9.1-19.7 17.8a54.1 54.1 0 0011.5 60.9c37.1 40.2-76.2 95.4 98.7 199.6 4.4 2.4-41-1.5-61.6-10.4z" fill="url(#k)"/><path d="M325 657.5c49.5 17.2 107 14.2 141.6-4.9 23-12.8 52.7-33.4 71-28.3a123.8 123.8 0 00-42.2-9.9c-2.4 0-5.4 0-8-.3a136 136 0 00-15.8.9c-8.9.8-18.7 6.4-27.7 5.5-.5 0 8.7-3.8 8-3.6-4.7 1-10 1.2-15.4 1.9-3.4.4-6.4.8-9.9 1-103 8.7-190-55.8-190-55.8-7.4 25 33.2 74.3 88.6 93.5z" fill="url(#l)"/><path d="M813.7 801.6c104.2-102.2 156.9-226.5 134.6-366 0 0 9 71.5-24.8 144.7 16.2-71.4 18-160.1-25-252C841 205.6 746.5 141 710.4 114.2c-54.7-40.8-77.4-82.3-77.8-90.9-16.4 33.5-65.8 148.2-5.3 247 56.6 92.6 145.8 120 208.3 205 115 156.4-21.9 326.3-21.9 326.3z" fill="url(#m)"/><path d="M798.8 535.5C762.4 460.4 717 427.5 674 392c5 7 6.2 9.5 9 14a265.5 265.5 0 0153.1 262.1C660 900.5 355 791.1 323 760.3 336 894.8 561 959.2 707.6 872c83.4-79 150.9-213.2 91.2-336.5z" fill="url(#n)"/></g></g></g></g></svg>